<svg xmlns="http://www.w3.org/2000/svg" width="24" height="24" viewBox="0 0 24 24" fill="#fff">
<path d="M9.70755 11.1751C10.0834 11.5001 10.0834 12.0334 9.70755 12.3584C9.35005 12.6834 8.76339 12.6834 8.40589 12.3584C7.54732 11.5767 7.06509 10.5172 7.06509 9.41259C7.06509 8.30795 7.54732 7.24845 8.40589 6.46676L11.6509 3.51676C12.5107 2.73624 13.6762 2.29785 14.8913 2.29785C16.1064 2.29785 17.2719 2.73624 18.1317 3.51676C18.9903 4.29845 19.4725 5.35795 19.4725 6.46259C19.4725 7.56724 18.9903 8.62674 18.1317 9.40843L16.7659 10.6501C16.7751 9.96676 16.6559 9.28343 16.3992 8.63343L16.8301 8.23343C17.087 8.00233 17.291 7.7272 17.4303 7.42395C17.5695 7.12071 17.6412 6.79536 17.6412 6.46676C17.6412 6.13816 17.5695 5.81282 17.4303 5.50957C17.291 5.20632 17.087 4.93119 16.8301 4.70009C16.5759 4.46648 16.2732 4.28102 15.9396 4.15444C15.6061 4.02787 15.2482 3.9627 14.8867 3.9627C14.5253 3.9627 14.1674 4.02787 13.8338 4.15444C13.5002 4.28102 13.1976 4.46648 12.9434 4.70009L9.70755 7.64176C9.45058 7.87286 9.24657 8.14799 9.10734 8.45124C8.96811 8.75448 8.89642 9.07982 8.89642 9.40843C8.89642 9.73703 8.96811 10.0624 9.10734 10.3656C9.24657 10.6689 9.45058 10.944 9.70755 11.1751ZM12.2926 7.64176C12.6501 7.31676 13.2367 7.31676 13.5942 7.64176C14.4528 8.42345 14.935 9.48295 14.935 10.5876C14.935 11.6922 14.4528 12.7517 13.5942 13.5334L10.3492 16.4834C9.48936 17.2639 8.32392 17.7023 7.10881 17.7023C5.89369 17.7023 4.72825 17.2639 3.86839 16.4834C3.00982 15.7017 2.52759 14.6422 2.52759 13.5376C2.52759 12.4329 3.00982 11.3735 3.86839 10.5918L5.23422 9.35009C5.22505 10.0334 5.34422 10.7168 5.60089 11.3751L5.17005 11.7668C4.91308 11.9979 4.70907 12.273 4.56984 12.5762C4.43061 12.8795 4.35892 13.2048 4.35892 13.5334C4.35892 13.862 4.43061 14.1874 4.56984 14.4906C4.70907 14.7939 4.91308 15.069 5.17005 15.3001C5.42426 15.5337 5.7269 15.7192 6.06048 15.8457C6.39405 15.9723 6.75192 16.0375 7.11339 16.0375C7.47485 16.0375 7.83273 15.9723 8.1663 15.8457C8.49987 15.7192 8.80252 15.5337 9.05672 15.3001L12.2926 12.3584C12.5495 12.1273 12.7535 11.8522 12.8928 11.549C13.032 11.2457 13.1037 10.9204 13.1037 10.5918C13.1037 10.2632 13.032 9.93782 12.8928 9.63457C12.7535 9.33132 12.5495 9.05619 12.2926 8.82509C12.2035 8.74925 12.1326 8.65762 12.084 8.55585C12.0355 8.45408 12.0105 8.34434 12.0105 8.23343C12.0105 8.12251 12.0355 8.01278 12.084 7.91101C12.1326 7.80924 12.2035 7.7176 12.2926 7.64176Z" fill="#464646"/>
</svg>