<svg xmlns="http://www.w3.org/2000/svg" width="22" height="19" viewBox="0 0 22 19" fill="none">
<path fill-rule="evenodd" clip-rule="evenodd" d="M22 19H17.1375V12.3205C17.1375 10.5725 16.3775 9.37887 14.7045 9.37887C13.4255 9.37887 12.714 10.1845 12.383 10.9606C12.2585 11.239 12.278 11.6271 12.278 12.0151V19H7.461C7.461 19 7.523 7.16822 7.461 6.09282H12.278V8.1187C12.563 7.23283 14.102 5.96885 16.558 5.96885C19.6055 5.96885 22 7.82515 22 11.8232V19ZM2.59 4.4783H2.5585C1.0065 4.4783 0 3.49172 0 2.24104C0 0.966144 1.03601 0 2.61951 0C4.20151 0 5.17449 0.963771 5.20499 2.23725C5.20499 3.48792 4.2015 4.4783 2.59 4.4783ZM0.554993 6.09282H4.84299V19H0.554993V6.09282Z" fill="#464646"/>
</svg>