<svg width="32" height="33" viewBox="0 0 32 33" fill="none" xmlns="http://www.w3.org/2000/svg">
<path fill-rule="evenodd" clip-rule="evenodd" d="M27.722 16.5372V16.5372C22.2548 18.1125 17.8996 22.3751 16.3243 27.9349V27.9349C16.2317 28.3056 15.7683 28.3056 15.6757 27.9349V27.9349C14.1004 22.4677 9.83784 18.1125 4.27799 16.5372V16.5372C3.90734 16.4446 3.90734 15.9812 4.27799 15.8886V15.8886C9.74517 14.3133 14.1004 10.0507 15.6757 4.49088V4.49088C15.7683 4.12023 16.2317 4.12023 16.3243 4.49088V4.49088C17.8996 9.95806 22.1622 14.3133 27.722 15.8886V15.8886C28.0927 15.9812 28.0927 16.4446 27.722 16.5372Z" stroke="#FAFAFA" stroke-linecap="round" stroke-linejoin="round"/>
<path d="M9.91477 5.41175C7.58523 6.03675 5.76705 7.85494 5.14205 10.1277C5.08523 10.2413 4.91477 10.2413 4.85795 10.1277C4.23295 7.79812 2.41477 6.03675 0.0852273 5.35494C-0.0284091 5.29812 -0.0284091 5.12766 0.0852273 5.07085C2.41477 4.44585 4.17614 2.62766 4.85795 0.298118C4.91477 0.184482 5.08523 0.184482 5.14205 0.298118C5.76705 2.62766 7.58523 4.38903 9.91477 5.07085C10.0284 5.18448 10.0284 5.35494 9.91477 5.41175Z" fill="#FAFAFA"/>
</svg>
