<svg width="40" height="40" viewBox="0 0 40 40" fill="none" xmlns="http://www.w3.org/2000/svg">
<g clip-path="url(#clip0_1_499)">
<path d="M0 3.33333C0 1.49238 1.49238 0 3.33333 0H36.6667C38.5076 0 40 1.49238 40 3.33333V36.6667C40 38.5076 38.5076 40 36.6667 40H3.33333C1.49238 40 0 38.5076 0 36.6667V3.33333Z" fill="white"/>
<path d="M36.6667 0.416687H3.33341C1.72258 0.416687 0.416748 1.72252 0.416748 3.33335V36.6667C0.416748 38.2775 1.72258 39.5834 3.33341 39.5834H36.6667C38.2776 39.5834 39.5834 38.2775 39.5834 36.6667V3.33335C39.5834 1.72252 38.2776 0.416687 36.6667 0.416687Z" fill="white" stroke="" stroke-width=""/>
<path d="M25.5742 11H28.6065L21.9817 18.5717L29.7752 28.875H23.673L18.8935 22.6261L13.4247 28.875H10.3905L17.4763 20.7762L10 11H16.2572L20.5774 16.7118L25.5742 11ZM24.5099 27.06H26.1902L15.3442 12.7197H13.5411L24.5099 27.06Z" fill="#464646"/>
</g>
<defs>
<clipPath id="clip0_1_499">
<rect width="40" height="40" fill="white"/>
</clipPath>
</defs>
</svg>
