<svg xmlns="http://www.w3.org/2000/svg" width="26" height="26" viewBox="0 0 26 26" fill="none">
<path fill-rule="evenodd" clip-rule="evenodd" d="M12.9973 3.25H13.0022C17.1705 3.25035 20.8772 5.90144 22.2254 9.84641C23.5736 13.7914 22.2649 18.1572 18.969 20.7095C15.6731 23.2617 11.1195 23.4355 7.6387 21.142L3.89116 22.3401L5.10622 18.7175C2.95547 15.7515 2.64967 11.8297 4.31467 8.56605C5.97966 5.30244 9.33408 3.24865 12.9973 3.25ZM16.0849 17.8161C16.7141 17.6701 17.5017 17.1706 17.7003 16.5682C17.8989 15.9654 17.8999 15.4497 17.8412 15.3404C17.794 15.2523 17.6814 15.1943 17.513 15.1074C17.4723 15.0865 17.4284 15.0639 17.3814 15.0387C17.1395 14.9095 15.9636 14.285 15.7412 14.202C15.5276 14.0934 15.2722 14.1766 15.1507 14.3943C14.9517 14.7117 14.7371 15.0174 14.5076 15.31C14.3515 15.4682 14.1211 15.5073 13.9273 15.4084C13.2145 15.1167 12.5596 14.6828 11.9969 14.1297C11.473 13.6087 11.0231 13.008 10.6613 12.3469C10.524 12.092 10.6425 11.9425 10.752 11.8042C10.7541 11.8017 10.7561 11.7991 10.7581 11.7965C10.8287 11.7026 10.8973 11.6245 10.9662 11.5459C11.0157 11.4895 11.0654 11.4328 11.1162 11.3699C11.225 11.2512 11.315 11.1142 11.3826 10.9643C11.4433 10.8081 11.4303 10.63 11.3477 10.4858C11.3073 10.3946 11.0585 9.74593 10.8446 9.18855C10.7528 8.94935 10.6675 8.72696 10.6079 8.57265C10.4484 8.16273 10.327 8.14729 10.0852 8.13615C10.076 8.13567 10.0667 8.13518 10.0572 8.13468C9.98218 8.13067 9.89979 8.12628 9.80934 8.12628C9.50121 8.11151 9.19967 8.22517 8.96771 8.44355C8.41127 8.99685 8.10445 9.78135 8.12607 10.5955C8.12607 11.8366 8.94954 13.0377 9.09492 13.2497C9.09816 13.2545 9.10106 13.2587 9.1036 13.2624C9.11263 13.2752 9.1296 13.3016 9.15427 13.34C9.4614 13.8178 10.9626 16.1534 13.2018 17.1506C15.093 17.9929 15.6548 17.9145 16.0849 17.8161Z" fill="#464646"/>
</svg>