<?xml version="1.0" standalone="no"?>
<!DOCTYPE svg PUBLIC "-//W3C//DTD SVG 20010904//EN"
 "http://www.w3.org/TR/2001/REC-SVG-20010904/DTD/svg10.dtd">
<svg version="1.0" xmlns="http://www.w3.org/2000/svg"
 width="512.000000pt" height="512.000000pt" viewBox="0 0 512.000000 512.000000"
 preserveAspectRatio="xMidYMid meet">

<g transform="translate(0.000000,512.000000) scale(0.100000,-0.100000)"
fill="#000000" stroke="none">
<path fill="#ccc" d="M158 4866 c-107 -39 -167 -131 -155 -237 10 -82 56 -145 132 -180 36
-17 70 -19 312 -19 l271 0 37 -117 c148 -475 138 -453 204 -453 29 0 71 38 71
65 0 6 -43 148 -95 314 -52 166 -95 304 -95 306 0 3 -13 11 -30 20 -24 12 -79
15 -324 15 l-295 0 -20 26 c-26 33 -27 65 -2 95 l19 24 351 3 c293 2 355 0
379 -12 26 -14 36 -37 125 -323 54 -169 216 -686 361 -1148 l264 -840 -75 -3
c-42 -2 -77 -1 -79 0 -1 2 -80 249 -174 548 -237 755 -217 698 -251 716 -25
12 -34 13 -56 2 -15 -7 -34 -24 -41 -38 -14 -24 -3 -65 166 -603 100 -317 184
-587 187 -600 6 -23 4 -25 -65 -31 -156 -16 -278 -74 -390 -186 -107 -107
-161 -217 -180 -364 -15 -122 19 -304 61 -327 33 -17 80 -7 102 23 20 26 20
28 2 89 -77 277 93 558 369 608 41 8 401 11 1118 11 910 0 1063 -2 1087 -15
47 -24 56 -78 18 -113 -23 -22 -25 -22 -456 -22 l-432 0 -24 -25 c-32 -31 -33
-74 -2 -103 23 -22 25 -22 469 -22 l446 0 53 28 c80 41 114 101 114 199 l0 73
355 0 c351 0 356 0 405 24 55 25 107 72 130 116 18 36 595 1915 595 1939 0 10
-9 29 -19 42 l-19 24 -1943 5 -1943 5 -51 165 c-69 220 -81 242 -165 286 -32
17 -66 19 -410 21 -296 2 -383 0 -412 -11z m1711 -668 c6 -29 27 -138 46 -243
19 -104 37 -198 39 -208 4 -16 -12 -17 -271 -15 l-276 3 -78 250 c-43 138 -79
253 -79 258 0 4 137 7 304 7 l305 0 10 -52z m770 -140 c6 -106 14 -223 18
-260 l6 -68 -276 0 -276 0 -10 53 c-31 151 -81 427 -81 446 0 21 1 21 303 21
l304 0 12 -192z m778 160 c-3 -18 -11 -135 -18 -260 l-13 -228 -288 0 c-268 0
-288 1 -288 18 0 9 -7 112 -15 227 -8 116 -15 225 -15 243 l0 32 321 0 321 0
-5 -32z m763 25 c0 -5 -21 -122 -47 -260 l-47 -253 -273 0 -273 0 0 42 c0 52
18 354 26 426 l5 52 305 0 c167 0 304 -3 304 -7z m757 -14 c-3 -12 -39 -129
-79 -260 l-73 -239 -273 0 -274 0 6 28 c3 15 24 126 46 247 22 121 43 226 45
233 3 9 74 12 306 12 301 0 301 0 296 -21z m-2908 -881 c24 -128 45 -245 48
-261 l6 -27 -233 2 -232 3 -79 250 c-43 138 -79 253 -79 258 0 4 118 7 263 7
l263 0 43 -232z m641 220 c0 -7 7 -110 15 -228 8 -118 15 -230 15 -248 l0 -32
-232 2 -233 3 -47 245 c-26 135 -47 251 -47 258 -1 9 58 12 264 12 205 0 265
-3 265 -12z m688 -245 c-9 -142 -17 -259 -17 -260 -1 -2 -109 -3 -241 -3 -184
0 -242 3 -245 13 -2 6 -9 93 -15 192 -6 99 -13 210 -17 248 l-6 67 279 0 279
0 -17 -257z m695 225 c-4 -18 -25 -134 -48 -258 l-41 -225 -229 -3 c-126 -1
-231 1 -235 5 -5 6 23 500 29 511 0 1 120 2 266 2 l265 0 -7 -32z m682 20 c-2
-7 -31 -103 -65 -213 -34 -110 -68 -221 -76 -247 l-16 -48 -229 0 c-185 0
-229 3 -229 13 0 8 20 123 45 257 25 134 45 245 45 247 0 1 119 3 265 3 207 0
263 -3 260 -12z m-2621 -675 c3 -10 23 -119 46 -243 23 -124 43 -231 45 -237
3 -10 -38 -13 -188 -13 l-192 0 -75 241 c-41 133 -76 248 -78 255 -3 12 35 14
217 14 201 0 220 -2 225 -17z m600 -25 c7 -59 26 -363 26 -421 l0 -47 -190 0
c-104 0 -190 1 -190 3 -1 1 -22 116 -49 255 l-47 252 222 0 223 0 5 -42z m616
5 c0 -27 -22 -376 -30 -471 0 -1 -91 -1 -202 0 l-203 3 -12 185 c-6 102 -13
215 -16 253 l-4 67 233 0 234 0 0 -37z m600 23 c0 -13 -74 -422 -85 -473 -5
-23 -6 -23 -201 -23 l-196 0 6 48 c3 26 11 140 17 255 l12 207 224 0 c183 0
223 -2 223 -14z m600 7 c0 -9 -108 -360 -126 -410 -9 -23 -29 -54 -45 -68 -30
-25 -33 -25 -198 -25 l-168 0 48 253 c26 138 48 253 48 255 2 5 441 1 441 -5z"/>
<path fill="#ccc" d="M1257 2089 c-84 -20 -171 -90 -215 -174 -23 -43 -27 -62 -27 -140 0
-75 4 -98 25 -140 34 -70 108 -139 175 -164 56 -21 60 -21 1680 -21 1169 0
1631 -3 1648 -11 24 -11 47 -47 47 -73 0 -7 -9 -25 -21 -40 l-20 -26 -1643 0
c-1803 0 -1691 -4 -1814 61 -55 28 -62 30 -88 17 -41 -19 -59 -60 -42 -95 27
-56 191 -123 326 -132 l83 -6 23 -67 c26 -77 83 -166 134 -208 l36 -29 -30
-58 c-26 -53 -29 -67 -29 -163 0 -93 3 -112 27 -162 70 -149 243 -239 400
-208 125 24 226 100 276 208 24 50 27 69 27 162 0 96 -3 110 -29 163 l-30 58
36 29 c51 42 106 127 132 206 l24 69 551 0 552 0 23 -67 c26 -77 83 -166 134
-208 l36 -29 -30 -58 c-26 -53 -29 -67 -29 -163 0 -93 3 -112 27 -162 50 -108
151 -184 276 -208 157 -31 330 59 400 208 24 50 27 69 27 162 0 96 -3 110 -29
163 l-30 58 36 29 c52 43 109 132 134 208 l21 67 59 6 c72 7 110 26 157 78
108 120 51 309 -109 357 -40 12 -299 14 -1667 14 l-1620 0 -43 25 c-69 41
-102 136 -73 212 15 40 48 73 94 94 37 17 75 19 532 19 l492 0 20 26 c12 15
21 33 21 40 0 26 -23 62 -47 73 -29 13 -968 14 -1026 0z m947 -961 c-25 -83
-92 -161 -172 -200 -41 -20 -62 -23 -162 -23 -100 0 -121 3 -162 23 -80 39
-147 117 -172 200 l-7 22 341 0 341 0 -7 -22z m2100 0 c-25 -83 -92 -161 -172
-200 -41 -20 -62 -23 -162 -23 -100 0 -121 3 -162 23 -80 39 -147 117 -172
200 l-7 22 341 0 341 0 -7 -22z m-2434 -373 c63 0 129 2 145 5 27 5 32 1 53
-40 63 -125 -4 -278 -137 -317 -142 -41 -281 64 -281 212 0 53 18 113 41 142
8 8 20 10 38 5 14 -4 78 -7 141 -7z m2100 0 c63 0 129 2 145 5 27 5 32 1 53
-40 63 -125 -4 -278 -137 -317 -142 -41 -281 64 -281 212 0 53 18 113 41 142
8 8 20 10 38 5 14 -4 78 -7 141 -7z"/>
<path d="M1820 670 c-30 -30 -27 -83 6 -109 15 -12 34 -21 44 -21 10 0 29 9
44 21 52 41 23 129 -44 129 -17 0 -39 -9 -50 -20z"/>
<path d="M3920 670 c-30 -30 -27 -83 6 -109 15 -12 34 -21 44 -21 10 0 29 9
44 21 52 41 23 129 -44 129 -17 0 -39 -9 -50 -20z"/>
</g>
</svg>
